<svg version="1.1" id="Layer_1" xmlns="http://www.w3.org/2000/svg" xmlns:xlink="http://www.w3.org/1999/xlink" x="0px" y="0px"
	 width="100%" viewBox="0 0 1024 1024" enable-background="new 0 0 1024 1024" xml:space="preserve">
<path fill="#000000" opacity="1.000000" stroke="none" 
	d="
M782.820312,685.137878 
	C752.161072,691.664001 723.852905,686.892639 699.058533,668.240662 
	C676.099548,650.969421 664.148132,627.352783 663.495911,598.251404 
	C663.185913,584.416443 664.639099,571.020996 670.428406,558.296326 
	C670.875916,557.312805 671.492065,556.154724 670.561707,554.673645 
	C668.191650,553.578613 666.730042,555.724304 665.242737,556.938171 
	C660.039429,561.184998 655.936218,566.447754 652.183350,571.982788 
	C651.724304,572.659912 650.922791,573.705261 651.143982,574.153259 
	C654.481506,580.911255 649.656982,586.061218 647.425842,591.444275 
	C643.082642,601.923340 644.159729,612.152039 646.656738,622.716553 
	C648.333679,629.811218 649.151306,637.111450 650.293701,644.329163 
	C650.939270,648.408325 649.557251,650.307983 644.982788,650.496521 
	C618.684692,651.580505 592.446960,652.151428 566.155823,649.541016 
	C534.720764,646.419739 503.386627,642.555786 472.070007,638.487061 
	C468.348999,638.003540 464.800842,638.238464 461.524078,640.424744 
	C456.479156,643.790710 450.926971,644.062561 445.204803,642.681580 
	C437.606323,640.847839 429.979828,639.109436 422.443268,637.045593 
	C415.654480,635.186584 410.644073,630.297058 405.291748,626.097412 
	C401.999695,623.514404 398.513824,621.288513 394.973846,619.086548 
	C391.335327,616.823242 389.635040,617.583496 388.160522,621.697266 
	C381.840363,639.329834 371.326019,654.193909 356.988678,666.187927 
	C339.969788,680.425293 320.095093,687.936340 298.054932,689.398621 
	C273.536499,691.025330 250.332672,686.071777 230.734024,670.882141 
	C204.182648,650.303772 188.575562,623.090393 189.194000,588.864319 
	C189.972031,545.806641 216.351990,509.657928 257.046936,494.765961 
	C290.280945,482.604279 321.573181,488.095245 350.569763,507.659576 
	C354.610352,510.385834 356.817932,511.340240 360.071350,506.718445 
	C362.910034,502.685791 366.777191,499.338715 369.602844,495.196564 
	C369.954681,494.680817 370.046692,493.987793 370.241333,493.427979 
	C369.243042,491.892365 367.693085,491.753815 366.295135,491.299530 
	C342.548035,483.581787 318.846893,475.727051 295.505920,466.838501 
	C289.621643,464.597687 283.472321,462.714966 280.709015,455.978241 
	C279.610138,453.299194 277.238739,454.693390 275.519501,455.514893 
	C256.702087,464.506287 238.255951,474.154968 221.800171,487.144012 
	C213.580795,493.631805 204.759171,499.470490 198.493271,508.146332 
	C197.337723,509.746368 195.567917,510.209747 193.645325,510.300781 
	C189.098801,510.516022 188.142807,509.323547 189.752075,505.170227 
	C196.195297,488.541382 202.498734,471.838593 214.393402,458.053253 
	C215.238815,457.073486 216.152405,455.996338 215.768723,454.179474 
	C211.831146,452.200195 207.445068,453.260223 203.224564,453.120789 
	C196.275208,452.891235 196.159164,452.876068 196.615982,446.172699 
	C196.695221,445.009918 196.680756,443.840881 196.715027,442.674927 
	C196.819275,439.129730 198.106506,437.548431 202.185150,437.429230 
	C213.388977,437.101654 222.077408,431.136810 230.572708,423.899536 
	C227.481888,421.236633 224.371902,422.330688 221.576782,422.146149 
	C218.262161,421.927338 216.886703,420.582520 216.875458,417.178802 
	C216.841431,406.879578 219.020309,397.408752 225.817093,389.278778 
	C227.772766,386.939514 229.677933,385.573273 232.906601,385.589264 
	C257.736603,385.712311 282.568512,385.535553 307.397552,385.735809 
	C322.589111,385.858337 334.680908,392.791321 343.840973,404.531158 
	C348.564331,410.584839 354.449249,414.412231 361.306274,417.330292 
	C386.672058,428.124969 412.816803,436.268799 440.071533,440.628937 
	C445.811096,441.547119 451.082520,444.168274 457.683014,445.410187 
	C454.949677,433.356232 463.611206,426.422485 468.685852,418.030792 
	C473.878571,409.443848 480.303497,401.822662 488.542450,395.818451 
	C498.181885,388.793610 509.504120,386.972107 520.742798,384.608917 
	C537.892395,381.002869 553.600037,387.496246 569.713074,391.177002 
	C588.510315,395.470917 607.179749,400.360840 626.281372,403.213318 
	C630.860107,403.897034 634.352051,403.128021 638.778198,400.057556 
	C652.091614,390.821899 666.577271,383.449768 683.815796,385.725891 
	C688.428223,386.334900 690.486328,389.593689 692.130493,393.442261 
	C693.695862,397.106354 693.902710,400.519684 691.052612,403.666718 
	C690.493469,404.284058 689.941772,404.908356 689.375366,405.518951 
	C683.456177,411.900208 682.877747,416.427795 687.112671,425.249268 
	C697.119568,423.335388 707.246033,421.410767 716.167236,415.889313 
	C726.175720,409.694885 728.276489,399.465698 721.954285,389.110870 
	C714.735413,377.287384 703.213013,371.552704 690.750610,367.167938 
	C682.226501,364.168793 673.264709,363.128296 664.452576,361.490997 
	C660.560303,360.767822 659.304138,358.829437 659.746582,355.340179 
	C661.218506,343.732056 664.810486,332.943726 672.507507,323.869141 
	C675.407410,320.450226 678.702515,319.019592 683.522583,320.595947 
	C710.548767,329.434784 735.822021,340.881958 756.080383,361.934357 
	C773.500244,380.037018 782.969910,401.646088 788.346191,425.630432 
	C790.502930,435.251953 791.251343,445.010010 792.061401,454.777466 
	C792.295227,457.597351 792.173340,460.409058 791.514771,463.217712 
	C789.439087,472.069611 786.769836,474.210175 777.874146,474.386292 
	C770.549561,474.531342 763.231689,474.998962 755.907349,475.189606 
	C753.062927,475.263641 750.711365,476.377686 748.622559,478.076599 
	C744.109253,481.747650 739.690674,485.535156 735.217529,489.971741 
	C765.487671,486.021362 792.421448,494.821838 818.003052,509.932587 
	C816.342529,512.199341 813.378235,510.667908 811.836975,513.407776 
	C844.685120,536.614746 858.168457,568.763855 851.954956,608.254822 
	C845.673584,648.177612 821.713440,673.388245 782.820312,685.137878 
M345.882294,619.403259 
	C349.051697,613.965515 351.650818,608.342285 352.211884,601.139038 
	C340.815582,601.938904 330.075500,602.668274 319.340973,603.471741 
	C317.679810,603.596008 316.978973,605.097290 316.030121,606.266846 
	C307.798553,616.413086 293.842468,620.417236 281.328369,616.287659 
	C268.646179,612.102539 260.255371,601.584229 259.697571,589.172180 
	C259.078613,575.398499 265.810486,564.791504 279.180206,559.010864 
	C282.365417,557.633789 284.390594,555.856567 285.124695,552.362183 
	C288.325806,537.125366 303.852844,534.797791 313.707947,540.602783 
	C317.433472,542.797180 321.378693,544.617859 325.609680,545.698669 
	C329.084991,546.586548 332.561340,547.563599 336.490234,545.935425 
	C334.797607,542.731018 332.357697,540.745117 329.872375,538.830750 
	C310.424408,523.850342 281.256866,522.071350 259.672882,534.546997 
	C237.870071,547.149109 223.822739,573.267883 228.370560,598.141113 
	C234.000504,628.932800 260.319641,651.763428 292.296051,651.323120 
	C315.342041,651.005737 333.076202,639.479797 345.882294,619.403259 
M697.198120,578.606018 
	C690.890015,602.926636 701.537476,630.525879 722.734375,644.725647 
	C736.141174,653.706726 750.833801,657.380127 766.868713,655.085266 
	C797.747559,650.665833 824.663330,620.109253 819.857239,583.227417 
	C815.520874,549.949829 782.843018,525.337463 749.665527,531.308044 
	C746.406921,531.894409 745.334167,533.226807 746.578003,536.400024 
	C748.155823,540.425354 749.849609,544.439148 750.970581,548.598877 
	C751.857605,551.890503 753.606445,552.688782 756.752808,552.571411 
	C760.215637,552.442139 763.782776,552.520447 767.163818,553.204041 
	C789.525696,557.725464 802.200806,580.020813 796.012634,603.727966 
	C791.710266,620.210327 778.301575,631.392273 760.719360,633.108093 
	C746.370972,634.508301 730.159912,628.218689 722.236023,612.298035 
	C714.312683,596.378540 716.234741,581.045898 726.588684,566.676575 
	C727.695557,565.140381 729.935242,563.868103 728.844971,561.533508 
	C726.054871,555.559204 723.081665,549.670349 719.907349,543.186829 
	C707.362244,552.245239 700.801453,563.999084 697.198120,578.606018 
M433.291779,482.407043 
	C418.308685,484.165375 404.745117,480.140594 391.757935,472.859314 
	C386.277588,469.786743 380.162109,467.833313 374.291565,465.480377 
	C372.856140,464.905090 371.086060,463.735962 369.841675,465.778534 
	C368.606262,467.806396 369.900879,469.259338 371.349945,470.495544 
	C372.230927,471.247070 373.212677,471.904968 374.220825,472.479095 
	C388.255646,480.472046 402.253418,488.532440 416.383270,496.354156 
	C419.719025,498.200714 422.079010,500.641388 424.327606,503.648712 
	C428.407684,509.105438 432.836456,514.267334 439.709137,516.648376 
	C449.671173,520.099731 451.214386,523.287537 448.779175,533.632141 
	C446.182159,544.664001 443.495270,555.696106 446.951691,567.077026 
	C447.882477,570.141846 446.416809,571.225220 443.406403,571.407043 
	C438.895508,571.679626 434.301514,571.919800 429.976166,574.522034 
	C433.195435,578.227966 436.556488,581.664368 440.786804,582.080688 
	C450.471222,583.033813 457.124207,588.987793 464.246368,594.414185 
	C466.419250,596.069763 468.326447,598.241943 471.466431,598.982605 
	C472.349792,592.771057 470.560150,587.488403 468.108215,582.360168 
	C467.284912,580.638184 466.181366,578.651672 468.292572,577.513184 
	C473.601379,574.650391 472.481598,570.555908 471.436096,565.936279 
	C467.423889,548.208069 474.890686,532.891785 491.431854,525.278992 
	C498.063110,522.226990 505.246613,520.383728 511.911499,517.394348 
	C533.057678,507.909729 552.961487,496.016541 573.284363,484.959045 
	C585.849426,478.122528 598.847168,471.993073 610.670105,463.826019 
	C615.417419,460.546722 615.887146,458.695343 613.235107,453.937988 
	C610.080688,448.279449 607.991699,447.293304 602.965759,449.599701 
	C598.129822,451.818939 593.192505,453.953705 588.703064,456.768768 
	C564.685913,471.828339 539.447449,484.665558 514.335266,497.711731 
	C506.407257,501.830475 497.903473,505.778076 488.585602,501.903381 
	C477.365997,497.237885 466.093567,492.622223 455.224487,487.219543 
	C448.451447,483.852844 441.748230,481.748901 433.291779,482.407043 
M621.538696,522.963013 
	C616.702698,529.968140 610.681580,535.965027 605.106018,542.343811 
	C600.614197,547.482666 601.140503,548.859314 607.790710,551.063599 
	C612.359863,552.578125 616.876465,554.259216 621.378052,555.967346 
	C628.592712,558.704956 634.796326,562.928772 639.820251,570.493408 
	C649.037354,552.027100 660.912903,537.250793 675.066650,524.476501 
	C672.385498,521.059021 669.391907,521.006409 666.723450,520.376953 
	C655.687622,517.773987 644.329224,517.792297 633.148926,516.360291 
	C627.821655,515.677917 624.117981,517.437744 621.538696,522.963013 
M491.087952,556.729431 
	C486.272247,564.696228 489.330566,571.950684 493.486908,578.821838 
	C486.453247,584.831421 486.409973,587.885254 492.907776,594.093750 
	C493.509033,594.668274 494.116058,595.237732 494.738312,595.789307 
	C496.621460,597.458679 498.711578,598.193787 501.157532,597.115601 
	C503.799164,595.951111 503.690735,593.609314 503.884735,591.222839 
	C504.096100,588.623230 500.742493,585.913208 503.282074,583.820190 
	C505.284149,582.170044 508.393280,584.087769 511.014648,583.679504 
	C511.503601,583.603455 512.013428,583.673645 512.509705,583.630859 
	C519.233948,583.051636 526.031372,577.247864 527.909485,570.491577 
	C529.565430,564.534424 527.066345,557.309631 522.071289,553.613525 
	C513.193115,547.044067 499.338928,548.186218 491.087952,556.729431 
M719.853210,360.173645 
	C718.267029,360.354126 716.523438,359.703125 715.135742,360.996796 
	C715.033813,362.702240 716.433350,363.263153 717.386108,364.070282 
	C725.876343,371.262573 732.962463,379.706879 737.751953,389.683655 
	C740.832153,396.099915 744.029541,400.189026 751.904541,397.786652 
	C755.217346,396.776031 759.065369,398.540527 762.853271,396.492767 
	C758.587341,386.850342 751.948303,379.227203 745.511780,371.413727 
	C739.016541,363.529083 731.013550,359.450989 719.853210,360.173645 
M593.797424,531.695251 
	C596.566833,534.292786 598.929810,533.986938 601.320984,531.002441 
	C603.919922,527.758484 606.842285,524.775635 609.552368,521.617859 
	C610.612793,520.382263 612.031616,519.088501 611.353394,517.239685 
	C610.655090,515.336304 608.757080,515.463135 607.113525,515.287231 
	C597.362854,514.243958 587.591919,513.354614 577.871643,512.079224 
	C573.324646,511.482635 570.740906,513.477356 568.126038,517.837830 
	C577.207458,521.490906 586.109924,524.835693 593.797424,531.695251 
M301.278717,585.382324 
	C295.571899,584.326965 289.812164,583.492126 284.176666,582.139709 
	C280.349518,581.221130 277.274780,581.680664 274.890808,584.900635 
	C273.417328,586.890747 272.915558,588.985840 274.150055,591.410828 
	C276.043854,595.131042 279.221649,595.878296 282.946136,595.634094 
	C283.277374,595.612366 283.612335,595.644897 283.943268,595.620850 
	C293.877899,594.899475 303.814270,594.200928 313.745697,593.437561 
	C318.298004,593.087585 322.840393,592.609497 327.387299,592.189514 
	C319.365906,587.780029 310.423279,587.967590 301.278717,585.382324 
M556.830933,581.433350 
	C561.118408,574.774658 558.336792,566.481689 550.911377,563.784973 
	C544.107788,561.314209 538.466492,565.035095 538.099243,572.173157 
	C537.882690,576.381409 538.515747,580.396423 542.596863,582.426941 
	C547.078247,584.656433 551.809143,584.793335 556.830933,581.433350 
M413.612152,546.193726 
	C413.092072,550.899902 415.569183,554.581909 418.134766,557.998962 
	C423.224243,564.777405 430.229340,565.186829 436.860870,559.874084 
	C440.221436,557.181824 440.070984,554.891907 437.343262,552.062378 
	C432.045685,546.567017 425.142487,544.861511 417.977234,543.859741 
	C416.493439,543.652283 415.059570,544.431152 413.612152,546.193726 
M416.560883,511.006714 
	C415.003204,503.753113 409.883881,500.172272 403.197815,498.575714 
	C399.643219,497.726898 397.051208,498.747284 397.127411,503.316589 
	C397.245667,510.407532 401.854034,516.355896 408.881012,517.963074 
	C415.278412,519.426208 416.397064,518.535522 416.560883,511.006714 
M374.523956,528.989624 
	C376.240143,529.832642 377.899994,529.999756 378.502197,527.762817 
	C379.989471,522.237976 380.365479,516.555054 379.050323,511.011047 
	C378.101685,507.012177 375.343781,506.356018 372.563965,509.263000 
	C363.874603,518.349854 361.976837,517.204224 372.687531,527.767395 
	C373.037903,528.112976 373.493958,528.351318 374.523956,528.989624 
M581.972168,552.551758 
	C586.664246,553.029480 589.741394,551.069824 590.581665,546.372559 
	C591.431763,541.619812 588.844299,537.873169 584.082275,536.757446 
	C580.172546,535.841492 576.822632,536.436829 575.123657,540.739685 
	C573.428894,545.031860 574.923584,548.935913 579.417725,551.592712 
	C579.983215,551.927063 580.630066,552.123962 581.972168,552.551758 
M395.427795,578.000732 
	C398.633789,579.588989 401.376068,582.474365 405.405853,581.791748 
	C407.838287,581.379761 410.035156,580.268433 410.147675,577.509338 
	C410.247864,575.053284 408.233246,574.273804 406.126770,573.941956 
	C402.798615,573.417725 399.888916,571.875854 396.934448,570.362122 
	C395.037567,569.390259 392.951050,568.769897 390.916260,568.091858 
	C389.425110,567.595032 387.788300,567.575928 386.842010,568.968689 
	C385.804596,570.495361 387.166412,571.756348 387.893921,572.997070 
	C389.438721,575.631836 392.311768,576.345886 395.427795,578.000732 
M424.787933,592.816528 
	C426.488861,599.122742 432.367065,600.942749 437.034149,603.944763 
	C438.928314,605.163208 441.853394,605.823120 443.191864,603.147766 
	C444.394836,600.743164 444.518829,597.429993 441.995880,595.842712 
	C436.971802,592.681885 431.694031,589.475403 424.787933,592.816528 
M718.870422,519.612366 
	C720.922485,522.337280 723.911804,522.442017 726.433472,521.224670 
	C729.062073,519.955688 727.590942,517.104736 727.300171,514.963135 
	C727.037476,513.028259 726.460999,511.080902 725.686401,509.284088 
	C724.638489,506.853271 722.854980,504.997894 719.923462,505.962982 
	C716.967651,506.936035 715.978088,509.367065 716.585388,512.289551 
	C717.052795,514.538391 717.865173,516.715637 718.870422,519.612366 
z"/>
<path fill="#000000" opacity="1.000000" stroke="none" 
	d="
M457.813477,499.092773 
	C462.219940,501.019653 466.537292,502.298187 470.303223,505.373901 
	C467.319733,508.256256 463.758026,509.132721 460.236725,509.697418 
	C449.227325,511.463043 439.405273,509.402039 432.195709,500.040253 
	C430.575806,497.936737 428.758087,495.715851 430.446625,492.823120 
	C432.191589,489.833710 434.925873,490.764191 437.567596,491.149139 
	C444.814667,492.205231 450.773712,496.497314 457.813477,499.092773 
z"/>
</svg>