<svg version="1.1" id="Layer_1" xmlns="http://www.w3.org/2000/svg" xmlns:xlink="http://www.w3.org/1999/xlink" x="0px" y="0px"
	 width="100%" viewBox="0 0 1024 1024" enable-background="new 0 0 1024 1024" xml:space="preserve">
<path fill="#000000" opacity="1.000000" stroke="none" 
	d="
M673.000122,667.965942 
	C684.498596,667.964172 695.497131,667.960083 706.495605,667.961670 
	C714.703186,667.962891 715.925171,668.952026 718.562866,678.485046 
	C686.214905,678.485046 654.119324,678.485046 621.954346,678.485046 
	C622.560730,685.614502 623.579346,686.637817 629.516907,686.607178 
	C659.164917,686.454407 688.812622,686.256104 718.460693,686.123596 
	C721.134705,686.111633 724.331848,685.472656 725.088501,689.466003 
	C723.590454,690.945190 721.841736,690.387329 720.265259,690.387695 
	C655.935547,690.402771 591.605774,690.339417 527.276306,690.467102 
	C522.663391,690.476257 520.232483,689.054993 518.068359,684.879883 
	C488.789246,628.392883 459.345001,571.991272 429.789948,515.648071 
	C427.308838,510.918152 427.055115,507.476105 430.185944,502.591919 
	C449.063324,473.142303 467.479919,443.396851 485.998840,413.718048 
	C500.636963,390.258698 515.246277,366.780945 529.737549,343.230896 
	C531.477417,340.403412 533.545044,339.594543 536.678650,339.610657 
	C556.510315,339.712646 576.342834,339.654388 596.175049,339.654022 
	C634.651978,339.653351 673.128906,339.649963 711.605835,339.674835 
	C713.571228,339.676117 715.604187,339.300873 717.483765,340.253357 
	C716.256165,348.245636 713.813049,350.368805 705.984009,350.366974 
	C677.818909,350.360474 649.653809,350.361450 621.488708,350.374237 
	C614.853333,350.377228 613.928467,351.151642 611.851501,358.705872 
	C643.993896,358.705872 675.958679,358.705872 708.044189,358.705872 
	C706.232117,368.423126 703.251831,371.031219 694.569519,371.020782 
	C666.405273,370.986847 638.239258,371.094086 610.078369,370.768036 
	C604.811218,370.707062 602.353577,372.532898 601.334595,378.425751 
	C633.498779,378.425751 665.423462,378.425751 697.635376,378.425751 
	C694.727905,388.220306 693.319092,389.331299 684.797546,389.329620 
	C656.799133,389.324097 628.800659,389.316925 600.802246,389.315796 
	C599.303040,389.315735 597.769104,389.170837 596.311768,389.431458 
	C593.170593,389.993225 591.817505,392.683990 591.676147,395.227356 
	C591.488892,398.595123 594.662964,397.632996 596.587952,397.636993 
	C624.752747,397.695343 652.917786,397.671204 681.082703,397.666779 
	C683.035889,397.666473 684.989075,397.666748 687.046814,397.666748 
	C685.359558,406.571503 682.732788,408.974548 674.979248,408.901581 
	C648.320251,408.650665 621.655762,409.497498 595.000183,408.507416 
	C593.338928,408.445709 591.665588,408.517548 590.006042,408.638672 
	C583.980530,409.078552 583.565186,409.467072 581.596375,416.821472 
	C589.290833,418.501862 597.028748,417.422394 604.649841,417.605316 
	C612.644836,417.797302 620.647949,417.648712 628.647522,417.649475 
	C636.480408,417.650238 644.313293,417.652069 652.146179,417.652618 
	C659.927917,417.653198 667.709717,417.652771 675.575073,417.652771 
	C674.442871,425.780701 671.709534,428.306274 664.761108,428.306519 
	C636.429932,428.307465 608.098267,428.395508 579.768005,428.238922 
	C574.583313,428.210297 572.720398,430.751068 571.829590,436.311707 
	C603.258301,436.311707 634.258728,436.311707 665.434753,436.311707 
	C663.640686,446.023865 661.041809,448.315552 652.607849,448.323029 
	C625.442810,448.347076 598.277832,448.343781 571.112793,448.360138 
	C569.614319,448.361023 568.066040,448.218689 566.627563,448.535889 
	C563.478638,449.230225 561.454590,451.689636 561.608948,454.560181 
	C561.770203,457.556335 564.942322,456.618713 566.928345,456.622711 
	C594.426697,456.677795 621.925232,456.645844 649.423645,456.680206 
	C651.359741,456.682648 653.407593,456.172760 655.222290,457.346649 
	C653.337036,465.321777 651.069458,467.302643 643.740234,467.302277 
	C615.741882,467.300781 587.742859,467.375580 559.745667,467.186615 
	C554.664490,467.152344 552.457703,469.254425 551.867981,474.805176 
	C583.280579,474.805176 614.439697,474.805176 645.768250,474.805176 
	C643.661499,484.085724 640.983765,486.300415 632.602295,486.300842 
	C605.103882,486.302277 577.603821,486.450684 550.108337,486.166473 
	C544.445740,486.107971 542.467834,488.749390 541.112793,494.450073 
	C572.897827,494.450073 604.192261,494.450073 635.676880,494.450073 
	C633.473328,504.815247 630.935852,506.340790 621.952148,505.860535 
	C610.817139,505.265289 599.639221,505.409882 588.479309,505.360107 
	C572.313843,505.288025 556.147278,505.399628 539.982605,505.267487 
	C536.205688,505.236572 532.790222,505.961945 532.850830,510.183228 
	C532.907898,514.162842 536.359314,514.702209 539.855896,514.693787 
	C567.354248,514.627380 594.852722,514.654663 622.351196,514.661865 
	C630.357117,514.663940 631.623291,515.754517 633.966309,525.300476 
	C603.116943,525.300476 572.486145,525.300476 541.734375,525.300476 
	C542.766663,532.603455 543.889160,533.715393 549.837769,533.716309 
	C577.835266,533.720703 605.832825,533.684204 633.830322,533.675354 
	C640.597473,533.673218 643.160950,536.252258 643.790222,544.250000 
	C613.183838,544.250000 582.622864,544.250000 551.953979,544.250000 
	C553.130432,551.420105 554.445068,552.645203 560.501648,552.648193 
	C586.333069,552.661133 612.164551,552.658752 637.995972,552.659546 
	C638.995789,552.659546 639.998108,552.676819 640.994934,552.615479 
	C650.841309,552.010010 652.257080,553.048401 655.197021,563.881958 
	C623.969299,563.881958 592.992676,563.881958 561.464417,563.881958 
	C562.666809,569.117188 564.001587,571.978088 569.372375,571.930237 
	C597.201965,571.682068 625.034668,571.785522 652.866272,571.748657 
	C660.645142,571.738342 663.555969,574.307617 665.177734,583.425964 
	C634.195984,583.425964 603.349060,583.425964 572.412109,583.425964 
	C573.317932,590.623474 574.418762,591.677002 580.456482,591.675110 
	C608.448425,591.666565 636.440369,591.641541 664.432312,591.628540 
	C671.929260,591.625061 674.118469,593.591003 675.658569,602.158386 
	C644.083191,601.272400 612.626038,601.868652 580.918518,601.760620 
	C583.071960,609.926697 583.928833,610.676697 590.767639,610.630615 
	C618.258667,610.445374 645.749512,610.227112 673.240417,610.029419 
	C682.454773,609.963135 683.605774,610.889221 686.239136,620.950867 
	C654.550049,620.950867 623.042969,620.950867 591.430664,620.950867 
	C592.442932,627.751404 593.727539,628.954468 599.174316,628.937561 
	C627.172302,628.850464 655.170288,628.765808 683.168274,628.692749 
	C692.925781,628.667297 693.867676,629.419678 696.931274,640.056152 
	C664.891541,640.056152 633.062012,640.056152 601.125793,640.056152 
	C602.156372,647.150269 603.927002,648.740417 610.100342,648.733704 
	C638.431946,648.702759 666.763611,648.662292 695.095215,648.628845 
	C704.622620,648.617615 704.939758,648.863770 708.349731,659.264160 
	C675.800354,659.264160 643.478943,659.264160 611.028259,659.264160 
	C612.465881,666.871277 613.719055,667.996826 620.533203,668.002991 
	C637.855469,668.018616 655.177795,667.981873 673.000122,667.965942 
z"/>
<path fill="#000000" opacity="1.000000" stroke="none" 
	d="
M307.647766,386.999878 
	C307.649200,372.669098 307.776428,358.836456 307.575775,345.008636 
	C307.515961,340.886017 308.849548,339.569885 312.990753,339.585693 
	C348.317108,339.720551 383.644196,339.660004 418.971039,339.674957 
	C425.312317,339.677643 425.340546,339.713715 425.340759,346.591949 
	C425.343475,429.076569 425.337585,511.561218 425.332977,594.045837 
	C425.331299,624.040283 425.216370,654.035522 425.431976,684.028381 
	C425.468353,689.094238 423.979095,690.508362 418.940948,690.478821 
	C384.115234,690.274231 349.287720,690.377991 314.460785,690.369629 
	C307.673889,690.367981 307.653595,690.341736 307.653229,683.445740 
	C307.648041,584.797119 307.648773,486.148529 307.647766,386.999878 
z"/>
</svg>