<svg width="367" height="66" viewBox="0 0 367 66" fill="none" xmlns="http://www.w3.org/2000/svg">
<path d="M81.7488 14.8109H88.4173V17.6581H81.7488V14.8109ZM85.2204 9.86576H93.2875V12.738H85.2204V9.86576ZM94.4364 10.9647C95.9849 17.0088 99.2817 21.9789 104.901 24.1268C104.227 24.7262 103.253 25.975 102.803 26.7992C96.884 24.1019 93.7371 18.6821 91.9139 11.5141L94.4364 10.9647ZM101.28 11.8388L104.052 13.8619C101.904 15.76 99.3316 17.858 97.3336 19.1567L95.2106 17.4084C97.1837 16.0098 99.7562 13.687 101.28 11.8388ZM91.4893 9.86576H94.7361V24.7762C94.7361 26.3746 94.3864 27.1988 93.3375 27.6983C92.2635 28.1729 90.765 28.2228 88.642 28.2228C88.5172 27.3487 88.0676 26.025 87.618 25.2008C88.8918 25.2757 90.4653 25.2757 90.8899 25.2757C91.3394 25.2507 91.4893 25.1259 91.4893 24.7262V9.86576ZM87.1685 7.31824L88.667 4.87063C91.5892 5.49502 95.7601 6.84371 97.908 7.94263L96.3096 10.7399C94.2865 9.59102 90.2155 8.09249 87.1685 7.31824ZM87.2934 14.8109H87.8928L88.4173 14.711L90.4403 15.5602C89.2415 20.7801 86.619 24.6763 83.547 26.7493C83.0725 26.0999 81.8487 24.951 81.1244 24.4765C84.0965 22.7282 86.4192 19.4064 87.2934 15.3854V14.8109ZM121.179 4.79571H124.076V28.2478H121.179V4.79571ZM118.831 9.74088L121.129 10.0406C121.029 12.2384 120.605 15.2105 120.005 17.1337L117.632 16.2845C118.232 14.6111 118.656 11.8388 118.831 9.74088ZM123.577 9.79083L125.675 8.91668C126.324 10.3153 127.148 12.2384 127.473 13.3374L125.25 14.4113C124.95 13.2125 124.201 11.2644 123.577 9.79083ZM126.399 5.94459H141.085V8.66693H126.399V5.94459ZM125.775 24.4016H141.309V27.1739H125.775V24.4016ZM130.27 17.8829V20.2306H136.714V17.8829H130.27ZM130.27 13.1376V15.4603H136.714V13.1376H130.27ZM127.398 10.5401H139.761V22.8281H127.398V10.5401ZM160.335 19.856H176.768V21.7292H160.335V19.856ZM159.086 22.8031H177.842V24.7262H159.086V22.8031ZM174.171 16.3344L175.869 17.9329C171.948 18.7071 166.079 19.0068 161.184 19.0318C161.159 18.5323 160.884 17.7331 160.684 17.2835C165.405 17.2336 171.074 16.9089 174.171 16.3344ZM167.053 18.0078H170V25.7003C170 27.074 169.65 27.6734 168.576 27.998C167.503 28.2978 166.004 28.2978 163.906 28.2978C163.731 27.6234 163.357 26.6993 163.007 26.05C164.331 26.1249 166.079 26.1249 166.479 26.0999C166.903 26.0749 167.053 25.975 167.053 25.6004V18.0078ZM159.935 10.3403H168.052V12.3383H159.935V10.3403ZM168.751 10.3403H177.518V12.3383H168.751V10.3403ZM162.957 8.96663H165.105V16.5342H162.957V8.96663ZM171.773 8.96663H173.946V16.3095H171.773V8.96663ZM163.082 11.5391L164.63 12.0886C163.756 13.762 162.158 15.5102 160.534 16.3594C160.21 15.8849 159.585 15.1606 159.136 14.786C160.684 14.1366 162.258 12.8129 163.082 11.5391ZM171.773 11.5391L173.347 12.0886C172.473 13.737 170.874 15.4853 169.276 16.3095C168.951 15.8349 168.327 15.1106 167.877 14.736C169.401 14.1116 170.974 12.8129 171.773 11.5391ZM174.121 11.7889C175.02 12.9128 176.694 14.1116 178.092 14.736C177.618 15.1106 176.943 15.8599 176.594 16.3844C175.17 15.5352 173.472 13.8868 172.548 12.4632L174.121 11.7889ZM164.93 12.4382C165.554 12.7629 167.602 13.8619 168.102 14.2115L166.703 15.71C166.104 15.1106 164.48 13.8369 163.731 13.2874L164.93 12.4382ZM165.554 4.79571H168.676V8.11746H165.554V4.79571ZM158.087 6.61893H177.743V9.09151H158.087V6.61893ZM156.363 6.61893H159.136V14.6361C159.136 18.6072 158.761 24.6014 156.613 28.3477C156.114 27.8232 154.94 26.8492 154.315 26.5495C156.214 23.1528 156.363 18.2326 156.363 14.6361V6.61893ZM205.334 8.24234H208.331V23.7772C208.331 24.951 208.431 25.1259 209.131 25.1259C209.43 25.1259 210.754 25.1259 211.104 25.1259C211.803 25.1259 211.928 24.3516 212.028 21.2047C212.702 21.7292 213.926 22.2537 214.75 22.4535C214.45 26.5245 213.726 27.9481 211.403 27.9481C210.854 27.9481 209.131 27.9481 208.631 27.9481C206.034 27.9481 205.334 26.974 205.334 23.7772V8.24234ZM210.704 4.99551L213.227 7.29327C209.905 8.592 205.359 9.44117 201.413 9.94068C201.288 9.26634 200.864 8.14244 200.514 7.49307C204.21 6.96859 208.281 6.04449 210.704 4.99551ZM200.539 15.6601L214.251 13.6371L214.7 16.4094L201.014 18.5073L200.539 15.6601ZM191.198 17.4833C193.471 17.0088 196.893 16.1846 200.064 15.3604L200.414 18.1327C197.542 18.9319 194.395 19.7311 191.972 20.3555L191.198 17.4833ZM191.473 9.54107H200.264V12.3383H191.473V9.54107ZM194.545 4.79571H197.467V24.9011C197.467 26.3247 197.217 27.074 196.368 27.5235C195.519 27.9731 194.32 28.048 192.547 28.048C192.447 27.2987 192.072 26.0749 191.723 25.3257C192.697 25.3756 193.746 25.3506 194.07 25.3506C194.42 25.3506 194.545 25.2258 194.545 24.8761V4.79571ZM237.397 4.82068L238.696 7.11844C236.373 7.76781 233.276 8.16741 230.703 8.31727C230.628 7.71785 230.304 6.79376 230.029 6.19434C232.552 5.91961 235.449 5.4201 237.397 4.82068ZM234.225 9.49112L236.473 8.54205C237.472 10.1655 238.621 12.3383 239.045 13.762L236.648 14.8109C236.273 13.4123 235.224 11.1645 234.225 9.49112ZM239.545 5.81971H248.336V8.11746H239.545V5.81971ZM247.437 5.81971H250.259C250.259 5.81971 250.234 6.51902 250.209 6.86868C249.91 11.3643 249.585 13.3124 248.96 14.0617C248.486 14.6111 247.936 14.8359 247.262 14.9108C246.688 14.9858 245.664 15.0107 244.59 14.9608C244.54 14.2115 244.29 13.1376 243.89 12.4632C244.715 12.5381 245.464 12.5631 245.814 12.5631C246.163 12.5631 246.363 12.5132 246.588 12.2884C246.937 11.8638 247.237 10.2903 247.437 6.21932V5.81971ZM242.567 6.51902H245.164C244.914 10.665 244.14 13.712 240.319 15.4853C240.044 14.8359 239.295 13.7869 238.72 13.3124C241.892 11.9887 242.367 9.7159 242.567 6.51902ZM230.154 15.6601C229.954 15.0357 229.355 13.9368 228.93 13.4622C229.43 13.1376 230.029 12.4882 230.029 11.3393V6.19434H232.926V13.0626C232.926 13.0626 230.154 14.711 230.154 15.6601ZM230.154 15.6601L229.854 13.2125L230.928 12.3134L236.672 10.69C236.722 11.4642 236.897 12.5631 237.047 13.1625C231.652 14.8359 230.728 15.2355 230.154 15.6601ZM238.071 18.882H241.218V21.0049C241.218 23.5024 239.72 26.4995 230.603 28.3727C230.254 27.7483 229.38 26.6494 228.655 26.05C237.297 24.6263 238.071 22.4784 238.071 20.905V18.882ZM240.519 24.8261L241.992 22.6782C244.815 23.4025 248.836 24.8261 250.934 25.8751L249.385 28.2978C247.412 27.2238 243.441 25.7003 240.519 24.8261ZM231.253 15.71H248.511V23.3776H245.364V18.2326H234.25V23.7022H231.253V15.71ZM271.232 12.0636V13.6121H281.747V12.0636H271.232ZM271.232 8.26732V9.81581H281.747V8.26732H271.232ZM268.285 5.86966H284.794V16.0347H268.285V5.86966ZM269.834 17.5333H284.445V20.1557H269.834V17.5333ZM283.77 17.5333H286.817C286.817 17.5333 286.767 18.3325 286.692 18.7071C286.168 24.1518 285.593 26.4246 284.794 27.2987C284.17 27.9231 283.545 28.1479 282.721 28.2228C282.047 28.3227 280.873 28.3227 279.599 28.2728C279.549 27.5235 279.275 26.4246 278.825 25.7253C279.874 25.8501 280.873 25.8501 281.323 25.8501C281.747 25.8501 281.972 25.8002 282.247 25.5255C282.796 25.001 283.346 22.903 283.77 17.9579V17.5333ZM271.357 14.711L274.23 15.6351C272.406 18.7071 269.509 21.4794 266.737 23.2027C266.237 22.6283 265.113 21.5294 264.464 21.0548C267.236 19.6312 269.884 17.2835 271.357 14.711ZM273.805 18.4574L276.627 19.3065C274.804 22.8031 271.732 25.8252 268.685 27.6983C268.21 27.1239 267.112 26.05 266.462 25.5504C269.509 24.0269 272.306 21.4045 273.805 18.4574ZM278.925 18.6322L281.747 19.3065C280.448 23.0529 278.176 26.3746 275.653 28.4226C275.154 27.9231 273.955 26.999 273.305 26.5744C275.828 24.8261 277.851 21.879 278.925 18.6322ZM310.588 13.9118L314.184 14.786C312.536 18.7071 310.313 23.1028 308.465 25.975L305.693 25.1009C307.491 22.0788 309.514 17.4833 310.588 13.9118ZM302.795 24.1768C307.516 24.0269 314.834 23.6773 321.377 23.3526L321.302 26.2747C314.884 26.7243 307.94 27.0989 303.195 27.3487L302.795 24.1768ZM315.433 19.4314L318.355 18.0827C320.553 20.7801 322.901 24.3266 324.1 26.7243L321.003 28.3727C319.954 25.975 317.531 22.1787 315.433 19.4314ZM307.94 5.37015L311.362 6.31922C309.764 10.2654 307.141 14.1366 304.594 16.5342C303.944 15.9099 302.496 14.8109 301.672 14.3114C304.269 12.2634 306.642 8.84176 307.94 5.37015ZM318.006 5.39512C319.479 8.34224 322.326 11.8388 324.624 13.9368C323.8 14.5612 322.651 15.76 322.077 16.5592C319.729 14.0367 316.857 10.0905 315.008 6.61893L318.006 5.39512ZM339.254 6.29424H357.835V9.14146H339.254V6.29424ZM339.478 10.9397H354.264V13.5372H339.478V10.9397ZM356.786 6.29424H359.858V24.4515C359.858 26.1748 359.559 27.0989 358.485 27.6234C357.436 28.1229 355.862 28.1979 353.59 28.1979C353.49 27.2987 353.04 25.8002 352.616 24.951C354.039 25.026 355.663 25.026 356.162 25.001C356.612 25.001 356.786 24.8761 356.786 24.4016V6.29424ZM340.777 15.3854H343.699V25.7003H340.777V15.3854ZM343.375 15.3854H352.965V23.8771H343.375V21.3046H350.018V17.9828H343.375V15.3854Z" fill="#05013E"/>
<path d="M77.5787 59.1219V40.9579H84.745C86.1227 40.9579 87.2964 41.221 88.2661 41.7472C89.2358 42.2676 89.9749 42.9919 90.4834 43.9202C90.9978 44.8426 91.255 45.9069 91.255 47.1131C91.255 48.3193 90.9948 49.3836 90.4745 50.306C89.9542 51.2284 89.2003 51.9468 88.2129 52.4612C87.2313 52.9756 86.0429 53.2328 84.6475 53.2328H80.0798V50.1552H84.0266C84.7657 50.1552 85.3747 50.0281 85.8537 49.7738C86.3385 49.5137 86.6992 49.1559 86.9357 48.7007C87.1781 48.2395 87.2993 47.7103 87.2993 47.1131C87.2993 46.51 87.1781 45.9837 86.9357 45.5344C86.6992 45.0791 86.3385 44.7273 85.8537 44.4789C85.3688 44.2247 84.7539 44.0976 84.0089 44.0976H81.4191V59.1219H77.5787ZM99.6674 59.388C98.2661 59.388 97.0599 59.1042 96.0488 58.5366C95.0436 57.963 94.269 57.153 93.7251 56.1064C93.1811 55.054 92.9091 53.8093 92.9091 52.3725C92.9091 50.9712 93.1811 49.7413 93.7251 48.6829C94.269 47.6245 95.0347 46.7997 96.0222 46.2084C97.0155 45.6171 98.1803 45.3215 99.5166 45.3215C100.415 45.3215 101.252 45.4664 102.027 45.7561C102.807 46.0399 103.487 46.4686 104.067 47.0421C104.652 47.6157 105.107 48.337 105.432 49.2062C105.758 50.0695 105.92 51.0806 105.92 52.2395V53.2772H94.4169V50.9357H102.364C102.364 50.3917 102.245 49.9098 102.009 49.49C101.772 49.0702 101.444 48.7421 101.024 48.5055C100.61 48.2631 100.129 48.1419 99.5787 48.1419C99.0052 48.1419 98.4967 48.2749 98.0532 48.541C97.6157 48.8012 97.2727 49.153 97.0244 49.5964C96.7761 50.034 96.6489 50.5218 96.643 51.0599V53.286C96.643 53.9601 96.7672 54.5425 97.0155 55.0333C97.2698 55.524 97.6275 55.9024 98.0887 56.1685C98.5499 56.4346 99.0968 56.5676 99.7295 56.5676C100.149 56.5676 100.534 56.5085 100.882 56.3902C101.231 56.272 101.53 56.0946 101.778 55.8581C102.027 55.6216 102.216 55.3319 102.346 54.9889L105.84 55.2195C105.663 56.0591 105.299 56.7923 104.749 57.4191C104.205 58.0399 103.502 58.5248 102.639 58.8736C101.781 59.2166 100.791 59.388 99.6674 59.388ZM108.386 59.1219V45.4989H112.049V47.8758H112.191C112.439 47.0303 112.856 46.3917 113.441 45.9601C114.027 45.5225 114.701 45.3038 115.463 45.3038C115.653 45.3038 115.857 45.3156 116.075 45.3392C116.294 45.3629 116.486 45.3954 116.652 45.4368V48.7894C116.475 48.7361 116.229 48.6888 115.916 48.6474C115.602 48.6061 115.316 48.5854 115.055 48.5854C114.5 48.5854 114.003 48.7066 113.565 48.949C113.134 49.1855 112.791 49.5166 112.537 49.9423C112.288 50.3681 112.164 50.8588 112.164 51.4146V59.1219H108.386ZM122.384 51.2461V59.1219H118.605V45.4989H122.206V47.9024H122.366C122.667 47.1101 123.173 46.4834 123.882 46.0222C124.592 45.5551 125.452 45.3215 126.463 45.3215C127.409 45.3215 128.234 45.5285 128.938 45.9423C129.642 46.3562 130.188 46.9475 130.579 47.7162C130.969 48.4789 131.164 49.3895 131.164 50.4479V59.1219H127.386V51.1219C127.392 50.2882 127.179 49.6378 126.747 49.1707C126.316 48.6977 125.721 48.4612 124.965 48.4612C124.456 48.4612 124.007 48.5706 123.616 48.7894C123.232 49.0081 122.931 49.3274 122.712 49.7472C122.499 50.1611 122.39 50.6608 122.384 51.2461ZM134.142 59.1219V45.4989H137.92V59.1219H134.142ZM136.04 43.7428C135.478 43.7428 134.996 43.5565 134.594 43.184C134.198 42.8056 134 42.3533 134 41.827C134 41.3067 134.198 40.8603 134.594 40.4878C134.996 40.1094 135.478 39.9202 136.04 39.9202C136.602 39.9202 137.081 40.1094 137.477 40.4878C137.879 40.8603 138.08 41.3067 138.08 41.827C138.08 42.3533 137.879 42.8056 137.477 43.184C137.081 43.5565 136.602 43.7428 136.04 43.7428ZM144.831 59.3792C143.962 59.3792 143.188 59.2284 142.508 58.9268C141.828 58.6194 141.29 58.167 140.894 57.5698C140.503 56.9667 140.308 56.2158 140.308 55.3171C140.308 54.5602 140.447 53.9246 140.725 53.4102C141.003 52.8958 141.381 52.4819 141.86 52.1685C142.339 51.8551 142.883 51.6186 143.492 51.459C144.107 51.2993 144.752 51.187 145.426 51.1219C146.218 51.0392 146.857 50.9623 147.341 50.8913C147.826 50.8145 148.178 50.7021 148.397 50.5543C148.616 50.4065 148.725 50.1877 148.725 49.898V49.8448C148.725 49.2831 148.548 48.8485 148.193 48.541C147.844 48.2336 147.347 48.0798 146.703 48.0798C146.023 48.0798 145.482 48.2306 145.08 48.5321C144.678 48.8278 144.412 49.2003 144.282 49.6497L140.787 49.3659C140.965 48.5381 141.313 47.8226 141.834 47.2195C142.354 46.6105 143.025 46.1434 143.847 45.8182C144.675 45.4871 145.633 45.3215 146.721 45.3215C147.477 45.3215 148.202 45.4102 148.894 45.5876C149.591 45.765 150.209 46.0399 150.747 46.4124C151.291 46.7849 151.72 47.2639 152.033 47.8492C152.347 48.4287 152.503 49.1234 152.503 49.9335V59.1219H148.92V57.2328H148.814C148.595 57.6585 148.302 58.034 147.936 58.3592C147.569 58.6785 147.129 58.9298 146.614 59.1131C146.1 59.2905 145.506 59.3792 144.831 59.3792ZM145.914 56.7716C146.469 56.7716 146.96 56.6622 147.386 56.4435C147.812 56.2188 148.146 55.9172 148.388 55.5388C148.63 55.1604 148.752 54.7317 148.752 54.2528V52.8071C148.633 52.884 148.471 52.9549 148.264 53.02C148.063 53.0791 147.835 53.1353 147.581 53.1885C147.327 53.2358 147.072 53.2801 146.818 53.3215C146.564 53.357 146.333 53.3895 146.126 53.4191C145.683 53.4841 145.296 53.5876 144.965 53.7295C144.633 53.8714 144.376 54.0636 144.193 54.306C144.01 54.5425 143.918 54.8381 143.918 55.1929C143.918 55.7073 144.104 56.1005 144.477 56.3725C144.855 56.6386 145.334 56.7716 145.914 56.7716ZM161.572 64.5144C160.348 64.5144 159.299 64.3459 158.424 64.0089C157.554 63.6778 156.863 63.2254 156.348 62.6519C155.834 62.0783 155.5 61.4338 155.346 60.7184L158.84 60.2483C158.947 60.5203 159.115 60.7746 159.346 61.0111C159.576 61.2476 159.881 61.4368 160.259 61.5787C160.644 61.7265 161.111 61.8004 161.661 61.8004C162.483 61.8004 163.16 61.5994 163.692 61.1973C164.23 60.8012 164.499 60.136 164.499 59.2018V56.7095H164.339C164.174 57.0879 163.925 57.4457 163.594 57.7827C163.263 58.1197 162.837 58.3947 162.317 58.6075C161.797 58.8204 161.176 58.9268 160.455 58.9268C159.432 58.9268 158.5 58.6903 157.661 58.2173C156.827 57.7384 156.162 57.0081 155.665 56.0266C155.174 55.0392 154.929 53.7916 154.929 52.2838C154.929 50.7406 155.18 49.4516 155.683 48.4168C156.186 47.3821 156.854 46.6075 157.687 46.0931C158.527 45.5787 159.446 45.3215 160.446 45.3215C161.208 45.3215 161.847 45.4516 162.361 45.7117C162.876 45.966 163.29 46.2853 163.603 46.6696C163.922 47.048 164.168 47.4205 164.339 47.7871H164.481V45.4989H168.233V59.255C168.233 60.4139 167.949 61.3836 167.381 62.1641C166.814 62.9446 166.027 63.5299 165.022 63.9202C164.023 64.3163 162.873 64.5144 161.572 64.5144ZM161.652 56.0887C162.261 56.0887 162.775 55.9379 163.195 55.6364C163.621 55.3289 163.946 54.8913 164.171 54.3237C164.401 53.7502 164.517 53.0643 164.517 52.2661C164.517 51.4678 164.404 50.7761 164.18 50.1907C163.955 49.5994 163.63 49.1412 163.204 48.816C162.778 48.4908 162.261 48.3282 161.652 48.3282C161.031 48.3282 160.508 48.4967 160.082 48.8337C159.656 49.1648 159.334 49.626 159.115 50.2173C158.897 50.8086 158.787 51.4915 158.787 52.2661C158.787 53.0525 158.897 53.7324 159.115 54.306C159.34 54.8736 159.662 55.3141 160.082 55.6275C160.508 55.935 161.031 56.0887 161.652 56.0887ZM175.124 59.3792C174.255 59.3792 173.48 59.2284 172.8 58.9268C172.12 58.6194 171.582 58.167 171.186 57.5698C170.796 56.9667 170.601 56.2158 170.601 55.3171C170.601 54.5602 170.74 53.9246 171.018 53.4102C171.296 52.8958 171.674 52.4819 172.153 52.1685C172.632 51.8551 173.176 51.6186 173.785 51.459C174.4 51.2993 175.044 51.187 175.718 51.1219C176.511 51.0392 177.149 50.9623 177.634 50.8913C178.119 50.8145 178.471 50.7021 178.69 50.5543C178.908 50.4065 179.018 50.1877 179.018 49.898V49.8448C179.018 49.2831 178.84 48.8485 178.486 48.541C178.137 48.2336 177.64 48.0798 176.996 48.0798C176.316 48.0798 175.775 48.2306 175.373 48.5321C174.97 48.8278 174.704 49.2003 174.574 49.6497L171.08 49.3659C171.257 48.5381 171.606 47.8226 172.126 47.2195C172.647 46.6105 173.318 46.1434 174.14 45.8182C174.967 45.4871 175.925 45.3215 177.013 45.3215C177.77 45.3215 178.494 45.4102 179.186 45.5876C179.884 45.765 180.502 46.0399 181.04 46.4124C181.584 46.7849 182.013 47.2639 182.326 47.8492C182.639 48.4287 182.796 49.1234 182.796 49.9335V59.1219H179.213V57.2328H179.106C178.888 57.6585 178.595 58.034 178.228 58.3592C177.862 58.6785 177.421 58.9298 176.907 59.1131C176.392 59.2905 175.798 59.3792 175.124 59.3792ZM176.206 56.7716C176.762 56.7716 177.253 56.6622 177.678 56.4435C178.104 56.2188 178.438 55.9172 178.681 55.5388C178.923 55.1604 179.044 54.7317 179.044 54.2528V52.8071C178.926 52.884 178.763 52.9549 178.557 53.02C178.356 53.0791 178.128 53.1353 177.874 53.1885C177.619 53.2358 177.365 53.2801 177.111 53.3215C176.857 53.357 176.626 53.3895 176.419 53.4191C175.976 53.4841 175.588 53.5876 175.257 53.7295C174.926 53.8714 174.669 54.0636 174.486 54.306C174.302 54.5425 174.211 54.8381 174.211 55.1929C174.211 55.7073 174.397 56.1005 174.769 56.3725C175.148 56.6386 175.627 56.7716 176.206 56.7716ZM189.612 59.3792C188.743 59.3792 187.968 59.2284 187.288 58.9268C186.608 58.6194 186.07 58.167 185.674 57.5698C185.284 56.9667 185.089 56.2158 185.089 55.3171C185.089 54.5602 185.228 53.9246 185.506 53.4102C185.783 52.8958 186.162 52.4819 186.641 52.1685C187.12 51.8551 187.664 51.6186 188.273 51.459C188.888 51.2993 189.532 51.187 190.206 51.1219C190.999 51.0392 191.637 50.9623 192.122 50.8913C192.607 50.8145 192.959 50.7021 193.177 50.5543C193.396 50.4065 193.506 50.1877 193.506 49.898V49.8448C193.506 49.2831 193.328 48.8485 192.973 48.541C192.625 48.2336 192.128 48.0798 191.483 48.0798C190.803 48.0798 190.262 48.2306 189.86 48.5321C189.458 48.8278 189.192 49.2003 189.062 49.6497L185.568 49.3659C185.745 48.5381 186.094 47.8226 186.614 47.2195C187.135 46.6105 187.806 46.1434 188.627 45.8182C189.455 45.4871 190.413 45.3215 191.501 45.3215C192.258 45.3215 192.982 45.4102 193.674 45.5876C194.372 45.765 194.99 46.0399 195.528 46.4124C196.072 46.7849 196.5 47.2639 196.814 47.8492C197.127 48.4287 197.284 49.1234 197.284 49.9335V59.1219H193.701V57.2328H193.594C193.375 57.6585 193.083 58.034 192.716 58.3592C192.35 58.6785 191.909 58.9298 191.395 59.1131C190.88 59.2905 190.286 59.3792 189.612 59.3792ZM190.694 56.7716C191.25 56.7716 191.741 56.6622 192.166 56.4435C192.592 56.2188 192.926 55.9172 193.169 55.5388C193.411 55.1604 193.532 54.7317 193.532 54.2528V52.8071C193.414 52.884 193.251 52.9549 193.044 53.02C192.843 53.0791 192.616 53.1353 192.361 53.1885C192.107 53.2358 191.853 53.2801 191.599 53.3215C191.344 53.357 191.114 53.3895 190.907 53.4191C190.463 53.4841 190.076 53.5876 189.745 53.7295C189.414 53.8714 189.157 54.0636 188.973 54.306C188.79 54.5425 188.698 54.8381 188.698 55.1929C188.698 55.7073 188.885 56.1005 189.257 56.3725C189.636 56.6386 190.115 56.7716 190.694 56.7716ZM203.993 51.2461V59.1219H200.215V45.4989H203.816V47.9024H203.976C204.277 47.1101 204.783 46.4834 205.492 46.0222C206.202 45.5551 207.062 45.3215 208.073 45.3215C209.019 45.3215 209.844 45.5285 210.548 45.9423C211.251 46.3562 211.798 46.9475 212.188 47.7162C212.579 48.4789 212.774 49.3895 212.774 50.4479V59.1219H208.996V51.1219C209.001 50.2882 208.789 49.6378 208.357 49.1707C207.925 48.6977 207.331 48.4612 206.574 48.4612C206.066 48.4612 205.616 48.5706 205.226 48.7894C204.842 49.0081 204.54 49.3274 204.322 49.7472C204.109 50.1611 203.999 50.6608 203.993 51.2461ZM221.603 40.9579H226.339L231.341 53.1619H231.554L236.557 40.9579H241.293V59.1219H237.568V47.2993H237.417L232.716 59.0333H230.18L225.479 47.255H225.328V59.1219H221.603V40.9579ZM250.541 59.388C249.163 59.388 247.972 59.0953 246.967 58.51C245.967 57.9187 245.196 57.0968 244.652 56.0443C244.108 54.986 243.836 53.7591 243.836 52.3636C243.836 50.9564 244.108 49.7265 244.652 48.6741C245.196 47.6157 245.967 46.7938 246.967 46.2084C247.972 45.6171 249.163 45.3215 250.541 45.3215C251.919 45.3215 253.107 45.6171 254.106 46.2084C255.112 46.7938 255.886 47.6157 256.43 48.6741C256.974 49.7265 257.246 50.9564 257.246 52.3636C257.246 53.7591 256.974 54.986 256.43 56.0443C255.886 57.0968 255.112 57.9187 254.106 58.51C253.107 59.0953 251.919 59.388 250.541 59.388ZM250.559 56.4612C251.186 56.4612 251.709 56.2838 252.129 55.929C252.548 55.5684 252.865 55.0776 253.078 54.4568C253.296 53.8359 253.406 53.1293 253.406 52.337C253.406 51.5447 253.296 50.8381 253.078 50.2173C252.865 49.5964 252.548 49.1057 252.129 48.745C251.709 48.3843 251.186 48.204 250.559 48.204C249.926 48.204 249.394 48.3843 248.962 48.745C248.537 49.1057 248.214 49.5964 247.996 50.2173C247.783 50.8381 247.676 51.5447 247.676 52.337C247.676 53.1293 247.783 53.8359 247.996 54.4568C248.214 55.0776 248.537 55.5684 248.962 55.929C249.394 56.2838 249.926 56.4612 250.559 56.4612ZM266.949 45.4989V48.337H258.745V45.4989H266.949ZM260.608 42.235H264.386V54.9357C264.386 55.2845 264.439 55.5565 264.545 55.7517C264.652 55.9409 264.8 56.0739 264.989 56.1508C265.184 56.2276 265.409 56.2661 265.663 56.2661C265.84 56.2661 266.018 56.2513 266.195 56.2217C266.372 56.1862 266.508 56.1596 266.603 56.1419L267.197 58.9534C267.008 59.0126 266.742 59.0806 266.399 59.1574C266.056 59.2402 265.639 59.2905 265.149 59.3082C264.238 59.3437 263.44 59.2225 262.754 58.9446C262.074 58.6667 261.545 58.235 261.166 57.6497C260.788 57.0643 260.602 56.3252 260.608 55.4324V42.235ZM275.419 59.388C274.041 59.388 272.85 59.0953 271.845 58.51C270.846 57.9187 270.074 57.0968 269.53 56.0443C268.986 54.986 268.714 53.7591 268.714 52.3636C268.714 50.9564 268.986 49.7265 269.53 48.6741C270.074 47.6157 270.846 46.7938 271.845 46.2084C272.85 45.6171 274.041 45.3215 275.419 45.3215C276.797 45.3215 277.985 45.6171 278.984 46.2084C279.99 46.7938 280.764 47.6157 281.308 48.6741C281.852 49.7265 282.124 50.9564 282.124 52.3636C282.124 53.7591 281.852 54.986 281.308 56.0443C280.764 57.0968 279.99 57.9187 278.984 58.51C277.985 59.0953 276.797 59.388 275.419 59.388ZM275.437 56.4612C276.064 56.4612 276.587 56.2838 277.007 55.929C277.426 55.5684 277.743 55.0776 277.956 54.4568C278.174 53.8359 278.284 53.1293 278.284 52.337C278.284 51.5447 278.174 50.8381 277.956 50.2173C277.743 49.5964 277.426 49.1057 277.007 48.745C276.587 48.3843 276.064 48.204 275.437 48.204C274.804 48.204 274.272 48.3843 273.84 48.745C273.415 49.1057 273.092 49.5964 272.874 50.2173C272.661 50.8381 272.554 51.5447 272.554 52.337C272.554 53.1293 272.661 53.8359 272.874 54.4568C273.092 55.0776 273.415 55.5684 273.84 55.929C274.272 56.2838 274.804 56.4612 275.437 56.4612ZM284.581 59.1219V45.4989H288.244V47.8758H288.386C288.634 47.0303 289.051 46.3917 289.636 45.9601C290.222 45.5225 290.896 45.3038 291.659 45.3038C291.848 45.3038 292.052 45.3156 292.271 45.3392C292.489 45.3629 292.681 45.3954 292.847 45.4368V48.7894C292.67 48.7361 292.424 48.6888 292.111 48.6474C291.797 48.6061 291.511 48.5854 291.251 48.5854C290.695 48.5854 290.198 48.7066 289.761 48.949C289.329 49.1855 288.986 49.5166 288.732 49.9423C288.483 50.3681 288.359 50.8588 288.359 51.4146V59.1219H284.581ZM300.652 59.1219V40.9579H304.492V48.9667H304.732L311.268 40.9579H315.871L309.131 49.0909L315.951 59.1219H311.357L306.381 51.6541L304.492 53.9601V59.1219H300.652ZM323.009 59.388C321.608 59.388 320.401 59.1042 319.39 58.5366C318.385 57.963 317.61 57.153 317.067 56.1064C316.523 55.054 316.251 53.8093 316.251 52.3725C316.251 50.9712 316.523 49.7413 317.067 48.6829C317.61 47.6245 318.376 46.7997 319.364 46.2084C320.357 45.6171 321.522 45.3215 322.858 45.3215C323.757 45.3215 324.593 45.4664 325.368 45.7561C326.149 46.0399 326.829 46.4686 327.408 47.0421C327.993 47.6157 328.449 48.337 328.774 49.2062C329.099 50.0695 329.262 51.0806 329.262 52.2395V53.2772H317.758V50.9357H325.705C325.705 50.3917 325.587 49.9098 325.35 49.49C325.114 49.0702 324.786 48.7421 324.366 48.5055C323.952 48.2631 323.47 48.1419 322.92 48.1419C322.347 48.1419 321.838 48.2749 321.395 48.541C320.957 48.8012 320.614 49.153 320.366 49.5964C320.118 50.034 319.99 50.5218 319.984 51.0599V53.286C319.984 53.9601 320.109 54.5425 320.357 55.0333C320.611 55.524 320.969 55.9024 321.43 56.1685C321.891 56.4346 322.438 56.5676 323.071 56.5676C323.491 56.5676 323.875 56.5085 324.224 56.3902C324.573 56.272 324.871 56.0946 325.12 55.8581C325.368 55.6216 325.557 55.3319 325.687 54.9889L329.182 55.2195C329.004 56.0591 328.641 56.7923 328.091 57.4191C327.547 58.0399 326.843 58.5248 325.98 58.8736C325.123 59.2166 324.132 59.388 323.009 59.388ZM335.151 55.2018L335.16 50.6696H335.71L340.073 45.4989H344.41L338.548 52.3459H337.652L335.151 55.2018ZM331.727 59.1219V40.9579H335.506V59.1219H331.727ZM340.242 59.1219L336.233 53.1885L338.752 50.5188L344.667 59.1219H340.242ZM350.149 59.3792C349.279 59.3792 348.505 59.2284 347.825 58.9268C347.145 58.6194 346.607 58.167 346.211 57.5698C345.82 56.9667 345.625 56.2158 345.625 55.3171C345.625 54.5602 345.764 53.9246 346.042 53.4102C346.32 52.8958 346.698 52.4819 347.177 52.1685C347.656 51.8551 348.2 51.6186 348.809 51.459C349.424 51.2993 350.069 51.187 350.743 51.1219C351.535 51.0392 352.174 50.9623 352.659 50.8913C353.143 50.8145 353.495 50.7021 353.714 50.5543C353.933 50.4065 354.042 50.1877 354.042 49.898V49.8448C354.042 49.2831 353.865 48.8485 353.51 48.541C353.161 48.2336 352.664 48.0798 352.02 48.0798C351.34 48.0798 350.799 48.2306 350.397 48.5321C349.995 48.8278 349.729 49.2003 349.599 49.6497L346.104 49.3659C346.282 48.5381 346.63 47.8226 347.151 47.2195C347.671 46.6105 348.342 46.1434 349.164 45.8182C349.992 45.4871 350.95 45.3215 352.038 45.3215C352.795 45.3215 353.519 45.4102 354.211 45.5876C354.908 45.765 355.526 46.0399 356.064 46.4124C356.608 46.7849 357.037 47.2639 357.35 47.8492C357.664 48.4287 357.82 49.1234 357.82 49.9335V59.1219H354.237V57.2328H354.131C353.912 57.6585 353.619 58.034 353.253 58.3592C352.886 58.6785 352.446 58.9298 351.931 59.1131C351.417 59.2905 350.823 59.3792 350.149 59.3792ZM351.231 56.7716C351.786 56.7716 352.277 56.6622 352.703 56.4435C353.129 56.2188 353.463 55.9172 353.705 55.5388C353.947 55.1604 354.069 54.7317 354.069 54.2528V52.8071C353.95 52.884 353.788 52.9549 353.581 53.02C353.38 53.0791 353.152 53.1353 352.898 53.1885C352.644 53.2358 352.389 53.2801 352.135 53.3215C351.881 53.357 351.65 53.3895 351.443 53.4191C351 53.4841 350.613 53.5876 350.282 53.7295C349.95 53.8714 349.693 54.0636 349.51 54.306C349.327 54.5425 349.235 54.8381 349.235 55.1929C349.235 55.7073 349.421 56.1005 349.794 56.3725C350.172 56.6386 350.651 56.7716 351.231 56.7716ZM364.53 40.9579V59.1219H360.752V40.9579H364.53Z" fill="#05013E"/>
<circle cx="32.5" cy="32.5" r="32.5" fill="#F5C34B"/>
<path d="M43.824 43.4741C41.1661 43.4741 39.0115 41.3685 39.0115 38.771C39.0115 36.1735 41.1661 34.0679 43.824 34.0679C46.4818 34.0679 48.6365 36.1735 48.6365 38.771C48.6365 41.3685 46.4818 43.4741 43.824 43.4741Z" stroke="black"/>
<path d="M43.824 40.7866C42.6849 40.7866 41.7615 39.8842 41.7615 38.771C41.7615 37.6578 42.6849 36.7554 43.824 36.7554C44.9631 36.7554 45.8865 37.6578 45.8865 38.771C45.8865 39.8842 44.9631 40.7866 43.824 40.7866Z" stroke="black"/>
<path d="M19.074 43.4741C16.4161 43.4741 14.2615 41.3685 14.2615 38.771C14.2615 36.1735 16.4161 34.0679 19.074 34.0679C21.7318 34.0679 23.8865 36.1735 23.8865 38.771C23.8865 41.3685 21.7318 43.4741 19.074 43.4741Z" stroke="black"/>
<path d="M19.074 40.7866C17.9349 40.7866 17.0115 39.8842 17.0115 38.771C17.0115 37.6578 17.9349 36.7554 19.074 36.7554C20.2131 36.7554 21.1365 37.6578 21.1365 38.771C21.1365 39.8842 20.2131 40.7866 19.074 40.7866Z" stroke="black"/>
<path d="M21.7981 32.104L22.9803 32.7901C23.6332 33.1692 23.8481 33.9936 23.4603 34.6317L21.5478 37.7787L19.1833 36.4063L21.7981 32.104Z" fill="white" stroke="black"/>
<path d="M39.8208 32.441L35.0352 36.974M29.2161 37.1292H27.5535C27.0381 37.1292 26.5659 36.8476 26.3304 36.3996L25.3045 34.4483C25.2888 34.4186 25.2675 34.3919 25.2418 34.3697L21.1068 30.8039M33.6149 34.8127V32.0536M33.6149 24.7745V27.1138M20.7405 30.7761V28.0436H28.8203L27.8452 30.7761H20.7405ZM20.7405 30.7761V27.0297C20.7405 26.8812 20.6173 26.761 20.4655 26.761H16.2052C15.2883 26.761 14.6282 27.6214 14.8854 28.4815L15.5135 30.5827C15.5478 30.6974 15.6553 30.7761 15.7775 30.7761H20.7405ZM35.0352 30.1302H39.0614M42.4997 30.1302H44.2487C44.4006 30.1302 44.5237 30.0099 44.5237 29.8614V24.9728C44.5237 24.8244 44.4006 24.7041 44.2487 24.7041H38.5144M37.9716 24.7041H33.7294M43.2136 24.6237V22.3364C43.2136 22.188 43.0905 22.0676 42.9386 22.0676H40.938C40.849 22.0676 40.7656 22.1096 40.714 22.1804L38.9321 24.6237M44.8354 26.0018L47.0213 26.0116C47.1726 26.0122 47.295 26.1324 47.295 26.2803V28.5216C47.295 28.6699 47.1718 28.7903 47.02 28.7903H44.8354M34.8676 38.1751V36.2163C34.8676 35.4741 34.252 34.8725 33.4926 34.8725H31.3553C31.2081 34.8725 31.0618 34.8956 30.9221 34.9409L30.2049 35.1737C29.6426 35.3561 29.2631 35.87 29.2631 36.449V36.9193V37.4893C29.2631 37.9154 29.4698 38.3163 29.8203 38.5696L30.7686 39.2553C31.0053 39.4264 31.292 39.5188 31.5863 39.5188H33.4926C34.252 39.5188 34.8676 38.9172 34.8676 38.1751ZM33.5758 31.448H31.3882H28.2103C28.1227 31.448 28.0516 31.3786 28.0516 31.2929C28.0516 29.1522 29.8274 27.4167 32.018 27.4167H34.6854C34.832 27.4167 34.9508 27.5328 34.9508 27.6761V30.1042C34.9508 30.8464 34.3352 31.448 33.5758 31.448Z" stroke="black" stroke-linecap="round"/>
<path d="M47.9495 26.7452C48.0398 26.7452 48.1292 26.7626 48.2126 26.7963C48.296 26.8302 48.3719 26.8796 48.4357 26.942C48.4995 27.0043 48.5501 27.0785 48.5847 27.1599C48.6192 27.2415 48.637 27.3288 48.637 27.4171C48.637 27.5053 48.6192 27.5926 48.5847 27.6742C48.5501 27.7557 48.4995 27.8298 48.4357 27.8921C48.3719 27.9546 48.296 28.0041 48.2126 28.0378C48.1292 28.0715 48.0398 28.089 47.9495 28.089" stroke="black"/>
<path d="M50.6311 25.3459L51.0292 24.9984M51.6241 27.3924L52.1578 27.3786M50.9262 29.4289L51.3726 29.7147" stroke="black" stroke-linecap="round"/>
<path fill-rule="evenodd" clip-rule="evenodd" d="M37.9763 29.0868L41.1163 37.4796L41.3519 38.1092L41.9967 37.8805L44.5815 36.9634L45.2286 36.7338L44.9929 36.1017L41.7669 27.4507L40.5065 27.9948L43.4653 35.9299L42.1721 36.3886L39.2368 28.5427L37.9763 29.0868Z" fill="black"/>
<path d="M38.5728 28.7686L41.0969 27.632M39.737 28.0084L36.2756 20.2414C36.2319 20.1433 36.1329 20.08 36.0234 20.08H31.9068C31.7549 20.08 31.6318 20.2003 31.6318 20.3487V22.525C31.6318 22.6734 31.7549 22.7937 31.9068 22.7937H37.413" stroke="black" stroke-linecap="round"/>
</svg>
